<?xml version="1.0" encoding="UTF-8" standalone="no"?><svg xmlns="http://www.w3.org/2000/svg" xmlns:xlink="http://www.w3.org/1999/xlink" contentScriptType="application/ecmascript" contentStyleType="text/css" height="244px" preserveAspectRatio="none" style="width:431px;height:244px;" version="1.1" viewBox="0 0 431 244" width="431px" zoomAndPan="magnify"><defs><filter height="300%" id="fco6f3bh7a0mz" width="300%" x="-1" y="-1"><feGaussianBlur result="blurOut" stdDeviation="2.0"/><feColorMatrix in="blurOut" result="blurOut2" type="matrix" values="0 0 0 0 0 0 0 0 0 0 0 0 0 0 0 0 0 0 .4 0"/><feOffset dx="4.0" dy="4.0" in="blurOut2" result="blurOut3"/><feBlend in="SourceGraphic" in2="blurOut3" mode="normal"/></filter></defs><g><!--cluster Classic Collections--><polygon fill="#DDDDDD" filter="url(#fco6f3bh7a0mz)" points="22,24,161,24,168,47.6094,171,47.6094,171,232,22,232,22,24" style="stroke: #000000; stroke-width: 1.5;"/><line style="stroke: #000000; stroke-width: 1.5;" x1="22" x2="168" y1="47.6094" y2="47.6094"/><text fill="#000000" font-family="sans-serif" font-size="14" font-weight="bold" lengthAdjust="spacingAndGlyphs" textLength="133" x="26" y="40.5332">Classic Collections</text><!--cluster net.sourceforge.plantuml--><polygon fill="#FFFFFF" filter="url(#fco6f3bh7a0mz)" points="195,132,379,132,386,155.6094,409,155.6094,409,232,195,232,195,132" style="stroke: #000000; stroke-width: 1.5;"/><line style="stroke: #000000; stroke-width: 1.5;" x1="195" x2="386" y1="155.6094" y2="155.6094"/><text fill="#000000" font-family="sans-serif" font-size="14" font-weight="bold" lengthAdjust="spacingAndGlyphs" textLength="178" x="199" y="148.5332">net.sourceforge.plantuml</text><!--class Object--><rect fill="#FEFECE" filter="url(#fco6f3bh7a0mz)" height="48" id="Object" style="stroke: #A80036; stroke-width: 1.5;" width="67" x="84.5" y="60"/><ellipse cx="99.5" cy="76" fill="#ADD1B2" rx="11" ry="11" style="stroke: #A80036; stroke-width: 1.0;"/><path d="M102.2656,71.875 Q102.4219,71.6563 102.6094,71.5469 Q102.7969,71.4375 103.0156,71.4375 Q103.3906,71.4375 103.625,71.7031 Q103.8594,71.9531 103.8594,72.5625 L103.8594,74.0156 Q103.8594,74.625 103.625,74.8906 Q103.3906,75.1563 103.0156,75.1563 Q102.6719,75.1563 102.4688,74.9531 Q102.2656,74.7656 102.1563,74.25 Q102.1094,73.8906 101.9219,73.7031 Q101.5938,73.3281 100.9844,73.1094 Q100.375,72.8906 99.75,72.8906 Q98.9844,72.8906 98.3438,73.2188 Q97.7188,73.5469 97.2188,74.2969 Q96.7344,75.0469 96.7344,76.0781 L96.7344,77.1719 Q96.7344,78.4063 97.625,79.2344 Q98.5156,80.0469 100.1094,80.0469 Q101.0469,80.0469 101.7031,79.7969 Q102.0938,79.6406 102.5156,79.2031 Q102.7813,78.9375 102.9219,78.8594 Q103.0781,78.7813 103.2813,78.7813 Q103.6094,78.7813 103.8594,79.0469 Q104.125,79.2969 104.125,79.6406 Q104.125,79.9844 103.7813,80.3906 Q103.2813,80.9688 102.4844,81.2969 Q101.4063,81.75 100.1094,81.75 Q98.5938,81.75 97.3906,81.125 Q96.4063,80.625 95.7188,79.5625 Q95.0313,78.4844 95.0313,77.2031 L95.0313,76.0469 Q95.0313,74.7188 95.6406,73.5781 Q96.2656,72.4219 97.3594,71.8125 Q98.4531,71.1875 99.6875,71.1875 Q100.4219,71.1875 101.0625,71.3594 Q101.7188,71.5156 102.2656,71.875 Z "/><text fill="#000000" font-family="sans-serif" font-size="12" lengthAdjust="spacingAndGlyphs" textLength="35" x="113.5" y="80.9102">Object</text><line style="stroke: #A80036; stroke-width: 1.5;" x1="85.5" x2="150.5" y1="92" y2="92"/><line style="stroke: #A80036; stroke-width: 1.5;" x1="85.5" x2="150.5" y1="100" y2="100"/><!--class ArrayList--><rect fill="#FEFECE" filter="url(#fco6f3bh7a0mz)" height="48" id="ArrayList" style="stroke: #A80036; stroke-width: 1.5;" width="79" x="75.5" y="168"/><ellipse cx="90.5" cy="184" fill="#ADD1B2" rx="11" ry="11" style="stroke: #A80036; stroke-width: 1.0;"/><path d="M93.2656,179.875 Q93.4219,179.6563 93.6094,179.5469 Q93.7969,179.4375 94.0156,179.4375 Q94.3906,179.4375 94.625,179.7031 Q94.8594,179.9531 94.8594,180.5625 L94.8594,182.0156 Q94.8594,182.625 94.625,182.8906 Q94.3906,183.1563 94.0156,183.1563 Q93.6719,183.1563 93.4688,182.9531 Q93.2656,182.7656 93.1563,182.25 Q93.1094,181.8906 92.9219,181.7031 Q92.5938,181.3281 91.9844,181.1094 Q91.375,180.8906 90.75,180.8906 Q89.9844,180.8906 89.3438,181.2188 Q88.7188,181.5469 88.2188,182.2969 Q87.7344,183.0469 87.7344,184.0781 L87.7344,185.1719 Q87.7344,186.4063 88.625,187.2344 Q89.5156,188.0469 91.1094,188.0469 Q92.0469,188.0469 92.7031,187.7969 Q93.0938,187.6406 93.5156,187.2031 Q93.7813,186.9375 93.9219,186.8594 Q94.0781,186.7813 94.2813,186.7813 Q94.6094,186.7813 94.8594,187.0469 Q95.125,187.2969 95.125,187.6406 Q95.125,187.9844 94.7813,188.3906 Q94.2813,188.9688 93.4844,189.2969 Q92.4063,189.75 91.1094,189.75 Q89.5938,189.75 88.3906,189.125 Q87.4063,188.625 86.7188,187.5625 Q86.0313,186.4844 86.0313,185.2031 L86.0313,184.0469 Q86.0313,182.7188 86.6406,181.5781 Q87.2656,180.4219 88.3594,179.8125 Q89.4531,179.1875 90.6875,179.1875 Q91.4219,179.1875 92.0625,179.3594 Q92.7188,179.5156 93.2656,179.875 Z "/><text fill="#000000" font-family="sans-serif" font-size="12" lengthAdjust="spacingAndGlyphs" textLength="47" x="104.5" y="188.9102">ArrayList</text><line style="stroke: #A80036; stroke-width: 1.5;" x1="76.5" x2="153.5" y1="200" y2="200"/><line style="stroke: #A80036; stroke-width: 1.5;" x1="76.5" x2="153.5" y1="208" y2="208"/><!--class Demo1--><rect fill="#FEFECE" filter="url(#fco6f3bh7a0mz)" height="48" id="Demo1" style="stroke: #A80036; stroke-width: 1.5;" width="73" x="211.5" y="168"/><ellipse cx="226.5" cy="184" fill="#ADD1B2" rx="11" ry="11" style="stroke: #A80036; stroke-width: 1.0;"/><path d="M229.2656,179.875 Q229.4219,179.6563 229.6094,179.5469 Q229.7969,179.4375 230.0156,179.4375 Q230.3906,179.4375 230.625,179.7031 Q230.8594,179.9531 230.8594,180.5625 L230.8594,182.0156 Q230.8594,182.625 230.625,182.8906 Q230.3906,183.1563 230.0156,183.1563 Q229.6719,183.1563 229.4688,182.9531 Q229.2656,182.7656 229.1563,182.25 Q229.1094,181.8906 228.9219,181.7031 Q228.5938,181.3281 227.9844,181.1094 Q227.375,180.8906 226.75,180.8906 Q225.9844,180.8906 225.3438,181.2188 Q224.7188,181.5469 224.2188,182.2969 Q223.7344,183.0469 223.7344,184.0781 L223.7344,185.1719 Q223.7344,186.4063 224.625,187.2344 Q225.5156,188.0469 227.1094,188.0469 Q228.0469,188.0469 228.7031,187.7969 Q229.0938,187.6406 229.5156,187.2031 Q229.7813,186.9375 229.9219,186.8594 Q230.0781,186.7813 230.2813,186.7813 Q230.6094,186.7813 230.8594,187.0469 Q231.125,187.2969 231.125,187.6406 Q231.125,187.9844 230.7813,188.3906 Q230.2813,188.9688 229.4844,189.2969 Q228.4063,189.75 227.1094,189.75 Q225.5938,189.75 224.3906,189.125 Q223.4063,188.625 222.7188,187.5625 Q222.0313,186.4844 222.0313,185.2031 L222.0313,184.0469 Q222.0313,182.7188 222.6406,181.5781 Q223.2656,180.4219 224.3594,179.8125 Q225.4531,179.1875 226.6875,179.1875 Q227.4219,179.1875 228.0625,179.3594 Q228.7188,179.5156 229.2656,179.875 Z "/><text fill="#000000" font-family="sans-serif" font-size="12" lengthAdjust="spacingAndGlyphs" textLength="41" x="240.5" y="188.9102">Demo1</text><line style="stroke: #A80036; stroke-width: 1.5;" x1="212.5" x2="283.5" y1="200" y2="200"/><line style="stroke: #A80036; stroke-width: 1.5;" x1="212.5" x2="283.5" y1="208" y2="208"/><!--class Demo2--><rect fill="#FEFECE" filter="url(#fco6f3bh7a0mz)" height="48" id="Demo2" style="stroke: #A80036; stroke-width: 1.5;" width="73" x="319.5" y="168"/><ellipse cx="334.5" cy="184" fill="#ADD1B2" rx="11" ry="11" style="stroke: #A80036; stroke-width: 1.0;"/><path d="M337.2656,179.875 Q337.4219,179.6563 337.6094,179.5469 Q337.7969,179.4375 338.0156,179.4375 Q338.3906,179.4375 338.625,179.7031 Q338.8594,179.9531 338.8594,180.5625 L338.8594,182.0156 Q338.8594,182.625 338.625,182.8906 Q338.3906,183.1563 338.0156,183.1563 Q337.6719,183.1563 337.4688,182.9531 Q337.2656,182.7656 337.1563,182.25 Q337.1094,181.8906 336.9219,181.7031 Q336.5938,181.3281 335.9844,181.1094 Q335.375,180.8906 334.75,180.8906 Q333.9844,180.8906 333.3438,181.2188 Q332.7188,181.5469 332.2188,182.2969 Q331.7344,183.0469 331.7344,184.0781 L331.7344,185.1719 Q331.7344,186.4063 332.625,187.2344 Q333.5156,188.0469 335.1094,188.0469 Q336.0469,188.0469 336.7031,187.7969 Q337.0938,187.6406 337.5156,187.2031 Q337.7813,186.9375 337.9219,186.8594 Q338.0781,186.7813 338.2813,186.7813 Q338.6094,186.7813 338.8594,187.0469 Q339.125,187.2969 339.125,187.6406 Q339.125,187.9844 338.7813,188.3906 Q338.2813,188.9688 337.4844,189.2969 Q336.4063,189.75 335.1094,189.75 Q333.5938,189.75 332.3906,189.125 Q331.4063,188.625 330.7188,187.5625 Q330.0313,186.4844 330.0313,185.2031 L330.0313,184.0469 Q330.0313,182.7188 330.6406,181.5781 Q331.2656,180.4219 332.3594,179.8125 Q333.4531,179.1875 334.6875,179.1875 Q335.4219,179.1875 336.0625,179.3594 Q336.7188,179.5156 337.2656,179.875 Z "/><text fill="#000000" font-family="sans-serif" font-size="12" lengthAdjust="spacingAndGlyphs" textLength="41" x="348.5" y="188.9102">Demo2</text><line style="stroke: #A80036; stroke-width: 1.5;" x1="320.5" x2="391.5" y1="200" y2="200"/><line style="stroke: #A80036; stroke-width: 1.5;" x1="320.5" x2="391.5" y1="208" y2="208"/><!--link Object to ArrayList--><path d="M116.782,128.024 C116.399,141.579 115.989,156.0381 115.66,167.6784 " fill="none" id="Object-ArrayList" style="stroke: #A80036; stroke-width: 1.0;"/><polygon fill="none" points="109.786,127.794,117.349,108,123.78,128.19,109.786,127.794" style="stroke: #A80036; stroke-width: 1.0;"/><!--link Object to Demo1--><path d="M166.271,120.258 C167.873,121.512 169.453,122.762 171,124 C188.566,138.067 207.654,154.6663 222.43,167.8232 " fill="none" id="Object-Demo1" style="stroke: #A80036; stroke-width: 1.0;"/><polygon fill="none" points="161.956,125.771,150.269,108.095,170.427,114.625,161.956,125.771" style="stroke: #A80036; stroke-width: 1.0;"/><!--link Demo1 to Demo2--><path d="M297.923,192 C305.028,192 312.133,192 319.238,192 " fill="none" id="Demo1-Demo2" style="stroke: #A80036; stroke-width: 1.0;"/><polygon fill="#A80036" points="284.703,192,290.703,196,296.703,192,290.703,188,284.703,192" style="stroke: #A80036; stroke-width: 1.0;"/><!--
@startuml

package "Classic Collections" #DDDDDD {
  Object <|- - ArrayList
}

package net.sourceforge.plantuml {
  Object <|- - Demo1
  Demo1 *- Demo2
}

@enduml

PlantUML version 1.2019.07(Mon Jun 24 22:59:20 EET 2019)
(GPL source distribution)
Java Runtime: OpenJDK Runtime Environment
JVM: OpenJDK 64-Bit Server VM
Java Version: 12.0.1+12
Operating System: Windows 10
OS Version: 10.0
Default Encoding: UTF-8
Language: en
Country: US
--></g></svg>